<svg xmlns="http://www.w3.org/2000/svg" viewBox="0 0 16 16">
    <path style="fill: #fff;line-height:normal;text-indent:0;text-align:start;text-decoration-line:none;text-decoration-style:solid;text-decoration-color:#fff;text-transform:none;isolation:auto;mix-blend-mode:normal;" d="M 2.4648438 1 L 4.1523438 2.6875 C 2.8359105 3.8773847 2 5.5889943 2 7.5 C 2 11.084167 4.915833 14 8.5 14 C 12.084167 14 15 11.084167 15 7.5 C 15 3.915833 12.084167 1 8.5 1 L 8 1 L 8 2 L 8.5 2 C 11.543833 2 14 4.456167 14 7.5 C 14 10.543833 11.543833 13 8.5 13 C 5.456167 13 3 10.543833 3 7.5 C 3 5.8593105 3.7240931 4.4008982 4.859375 3.3945312 L 6 4.5351562 L 6 1 L 2.4648438 1 z" font-weight="400" font-family="sans-serif" white-space="normal" overflow="visible"/>
</svg>
