<?xml version="1.0" encoding="UTF-8" standalone="no"?>
<!-- Created with Inkscape (http://www.inkscape.org/) -->

<svg
   xmlns:dc="http://purl.org/dc/elements/1.1/"
   xmlns:cc="http://creativecommons.org/ns#"
   xmlns:rdf="http://www.w3.org/1999/02/22-rdf-syntax-ns#"
   xmlns:svg="http://www.w3.org/2000/svg"
   xmlns="http://www.w3.org/2000/svg"
   xmlns:sodipodi="http://sodipodi.sourceforge.net/DTD/sodipodi-0.dtd"
   xmlns:inkscape="http://www.inkscape.org/namespaces/inkscape"
   id="svg3416"
   version="1.1"
   inkscape:version="0.91 r13725"
   width="390"
   height="390"
   viewBox="0 0 390 390"
   sodipodi:docname="meditate.svg"
   inkscape:export-filename="/home/ancientfuture/Graphics/meditate.png"
   inkscape:export-xdpi="112.39"
   inkscape:export-ydpi="112.39">
  <metadata
     id="metadata3422">
    <rdf:RDF>
      <cc:Work
         rdf:about="">
        <dc:format>image/svg+xml</dc:format>
        <dc:type
           rdf:resource="http://purl.org/dc/dcmitype/StillImage" />
        <dc:title></dc:title>
      </cc:Work>
    </rdf:RDF>
  </metadata>
  <defs
     id="defs3420" />
  <sodipodi:namedview
     pagecolor="#ffffff"
     bordercolor="#666666"
     borderopacity="1"
     objecttolerance="10"
     gridtolerance="10"
     guidetolerance="10"
     inkscape:pageopacity="0"
     inkscape:pageshadow="2"
     inkscape:window-width="1325"
     inkscape:window-height="744"
     id="namedview3418"
     showgrid="false"
     inkscape:zoom="1.1114268"
     inkscape:cx="91.137561"
     inkscape:cy="259.00954"
     inkscape:window-x="41"
     inkscape:window-y="24"
     inkscape:window-maximized="1"
     inkscape:current-layer="svg3416" />
  <path
     style="fill:#ffdd55"
     d="m 184.2,352.78938 c -7.97775,-0.56589 -17.42479,-1.99143 -24.76049,-3.73632 -7.32487,-1.74234 -8.24999,-1.99326 -8.12208,-2.20305 0.0671,-0.11001 -0.30317,-0.22326 -0.82274,-0.25167 -1.24074,-0.0678 -10.52672,-3.12558 -13.54469,-4.46007 -0.495,-0.21888 -2.115,-0.89082 -3.6,-1.49319 -3.48739,-1.41462 -13.40985,-6.2994 -16.5,-8.12286 C 107.22343,326.09421 103.93223,324.55485 96,318.24708 87.309417,311.33274 78.667257,302.69058 71.752926,294 l -8.510199,-11.61633 c -1.536,-2.34648 -3.096921,-4.77648 -3.468714,-5.4 -0.371796,-0.62352 -1.155204,-1.93817 -1.740909,-2.92144 -5.501946,-9.23654 -12.462876,-25.51664 -14.688972,-34.3543 -0.229686,-0.91186 -0.692331,-2.60293 -1.0281,-3.75793 -5.216799,-17.94517 -6.762573,-41.49448 -4.046529,-61.64749 1.670373,-12.39417 4.387317,-23.55225 8.072481,-33.15251 0.696708,-1.815 1.70805,-4.4475 2.247426,-5.85 2.63712,-6.85712 7.583388,-16.53755 12.262929,-24 l 5.480997,-8.26588 C 69.074163,98.982828 75.842163,90.835485 80.774322,85.65 l 1.646539,-1.684258 6.484572,6.446487 -2.088295,2.061013 c -2.761223,2.72515 -6.060723,6.540291 -7.767138,8.760108 -0.495,0.64394 -1.246146,1.58611 -1.669215,2.09372 -1.370355,1.6442 -5.256141,7.13543 -7.552539,10.67293 -32.465445,50.01156 -31.829589,115.01169 1.608225,164.4 6.865023,10.13977 15.327291,19.80979 24.713529,28.24068 6.80828,6.11532 16.49726,13.03425 25.3009,18.06741 3.23826,1.85136 12.99812,6.79191 13.41713,6.79191 0.0756,0 1.53289,0.59601 3.23841,1.3245 12.2213,5.22003 28.0384,9.18303 42.04356,10.53411 31.6358,3.05187 63.11723,-3.80064 90.03137,-19.59699 10.04678,-5.89662 19.9838,-13.38999 27.49363,-20.73258 l 2.625,-2.56653 6.17879,6.15045 -2.70033,2.87302 C 302.23344,311.12981 292.2,319.91433 292.2,319.60167 c 0,-0.12288 -0.50625,0.26214 -1.125,0.85563 -1.25913,1.20774 -8.80429,6.47937 -12.87053,8.99235 -5.00292,3.09186 -6.31452,3.83067 -11.53011,6.49476 -17.71714,9.04977 -36.59031,14.50503 -57.27436,16.55499 -4.50602,0.44658 -20.41186,0.62961 -25.2,0.28998 z m 116.76382,-53.17911 2.68167,-2.788 c 15.86465,-16.4937 27.7922,-37.2195 34.33649,-59.45963 8.79771,-29.89823 8.05254,-61.97201 -2.12031,-91.26264 -2.40585,-6.92713 -3.91113,-10.48943 -7.35252,-17.4 -5.3682,-10.77969 -10.91676,-19.30953 -18.92811,-29.098197 C 305.93187,95.143074 296.91813,85.957395 292.45614,82.150269 273.88263,66.302694 252.34105,55.267911 229.65,49.977507 201.44275,43.401006 172.62171,44.864589 145.8,54.235551 126.00064,61.15305 106.62623,73.000437 92.310207,86.944389 L 89.670414,89.515575 83.25,83.049495 c 7.123625,-7.600019 18.68275,-15.401664 22.95,-18.896412 1.58532,-1.139043 7.43047,-4.821321 9.3,-5.85873 0.9075,-0.503574 2.6625,-1.497093 3.9,-2.207823 8.42589,-4.839201 22.52459,-10.513104 33.79944,-13.6023 12.74632,-3.492366 24.10668,-5.127903 38.05056,-5.478099 23.50088,-0.590214 46.43939,3.945732 67.95,13.436682 3.45742,1.525488 12.78369,6.316842 15.3,7.860339 1.2375,0.759081 2.655,1.60524 3.15,1.880352 2.02074,1.123095 9.46464,6.203736 10.76002,7.343976 0.76449,0.67293 1.38998,1.141488 1.38998,1.041237 0,-0.257958 4.96984,3.661521 8.7,6.861285 15.35538,12.942703 22.12546,24.07085 27.72477,31.369998 6.8862,10.3601 11.05533,18.25226 15.68943,29.7 1.58685,3.92005 3.90405,10.57369 4.75371,13.65 4.89039,17.70582 6.73848,31.83997 6.33504,48.45 -0.20628,8.4928 -0.50412,12.00667 -1.70439,20.10837 -2.07525,14.00744 -5.76834,26.68726 -11.8809,40.79163 -1.20597,2.78267 -5.81271,11.85506 -7.17384,14.12793 -2.04417,3.41346 -5.47806,8.85598 -6.43995,10.20695 -0.51501,0.72332 -1.30029,1.85733 -1.7451,2.52004 -1.37436,2.04756 -2.52744,3.54712 -3.64059,4.73454 -0.58749,0.6267 -0.63726,0.87001 -0.97992,1.28597 -3.83179,4.65156 -11.45591,13.50883 -12.01619,13.50883 -2.39392,-2.09501 -4.05772,-3.86524 -6.45825,-6.27399 z M 134.25,292.30134 c -6.93832,-0.41867 -13.62104,-1.63751 -17.87135,-3.25949 -3.39607,-1.29599 -4.97978,-2.2215 -7.06946,-4.13134 0,0 -1.19552,-0.91945 -1.6517,-1.50956 -0.57812,-0.74785 -1.32415,-2.5076 -1.32415,-2.5076 C 105.48526,279.2196 105.45,278.98831 105.45,275.1 c 0,-3.83055 0.0427,-4.12315 0.78864,-5.4 0.43375,-0.7425 0.88513,-1.8225 1.00307,-2.4 0.11794,-0.5775 0.75783,-2.66976 1.42199,-4.64946 2.83412,-8.44798 9.38133,-20.96652 18.82832,-36.00054 6.20339,-9.87215 8.64322,-15.75461 12.31842,-29.7 3.26513,-12.38939 5.45851,-18.70477 8.37456,-24.11269 0.76732,-1.42302 1.64812,-3.26231 1.95735,-4.08731 0.35943,-0.95895 1.12563,-2.05079 2.12417,-3.02699 6.75564,-5.24947 16.62351,-3.77415 22.90688,-9.32038 3.1074,-2.81203 5.06995,-6.94002 5.89199,-12.39308 0.66958,-4.44175 0.58861,-6.201 -0.34153,-7.42049 -1.79269,-2.35033 -3.88203,-7.51891 -4.34267,-11.45551 -0.5889,-5.0327 -0.24801,-4.81064 0.78586,-11.50291 1.48374,-4.33044 4.92677,-10.51127 8.89217,-13.22409 10.04428,-6.871512 23.9744,-1.007256 26.80969,12.71111 0.8854,4.28395 1.68327,7.61071 1.03114,11.29754 -0.2749,1.55415 -1.24235,5.89169 -2.43886,8.4677 -1.15408,2.48467 -2.80236,4.96632 -4.50429,6.78169 -0.85053,0.90721 -0.85515,0.9327 -0.57245,3.16239 1.19677,9.43913 5.03267,14.75175 12.4296,17.21466 1.1748,0.39116 3.8235,1.06911 5.886,1.50656 8.25821,1.75152 11.45087,3.58831 12.88784,7.41458 0.20391,0.54297 0.88662,2.06722 1.51713,3.38722 2.23304,4.67499 3.39195,8.64478 5.69267,19.5 2.30134,10.85818 3.86575,16.09201 5.78377,19.35 0.7658,1.30081 6.0147,8.36785 8.46712,11.4 2.62594,3.2467 8.70491,11.35687 11.1308,14.85 7.70546,11.09539 11.96709,20.53816 13.03553,28.8837 0.18422,1.43897 0.55999,3.15193 0.83504,3.80658 0.38033,0.90521 0.5001,2.12665 0.5001,5.1 0,3.74906 -0.037,3.98268 -0.89965,5.6853 -3.06,6.03934 -10.32664,9.50892 -23.10035,11.02966 -4.70756,0.56044 -21.7258,0.46148 -29.4,-0.17096 -3.3,-0.27196 -8.83085,-0.63427 -12.29077,-0.80514 -3.45992,-0.17087 -6.35034,-0.37025 -6.42316,-0.44307 -2.34441,-0.26681 -1.06593,-0.12028 -2.34441,-0.26681 -2.26,-0.26475 -14.28137,-2.28978 -14.53988,-2.44928 -0.10902,-0.0673 -2.81093,0.34175 -6.00425,0.90893 -7.82585,1.38996 -12.07583,1.92331 -16.97979,2.13084 -2.26476,0.0958 -6.48024,0.36709 -9.36774,0.60277 -10.74693,0.87718 -22.61526,1.22106 -28.95,0.83881 z m 96.3,-29.32287 c 14.1644,-3.77751 27.76871,-5.28522 35.68762,-3.95509 1.47819,0.24829 2.72414,0.41491 2.76878,0.37027 0.21899,-0.21899 -10.41581,-12.91231 -14.74039,-17.5936 -2.10491,-2.27854 -6.93332,-8.11909 -9.67243,-11.7 -9.1902,-12.01456 -14.56729,-23.45369 -16.64017,-35.4 l -0.39041,-2.25 -0.19315,3.75 c -0.24317,4.72107 -0.77091,7.19669 -2.97383,13.95 -2.1021,6.44425 -2.49533,7.97277 -3.16434,12.3 -1.24031,8.02252 0.37426,18.88551 4.80715,32.34303 1.65084,5.01166 1.92875,6.66411 1.36859,8.13744 -0.36707,0.96547 -0.30156,0.96647 3.14258,0.048 z m -70.76318,-1.68264 c 0.066,-0.84561 0.86893,-3.7805 1.78417,-6.52196 3.61956,-10.84187 5.07128,-18.493 5.05155,-26.62382 -0.0158,-6.51625 -0.47996,-9.04806 -3.13487,-17.1 -5.37911,-12.52027 -0.4239,-25.74868 -6.47714,-6.69224 -2.47913,7.69913 -7.85353,19.46071 -12.1055,26.49224 -2.47656,4.0955 -6.30326,9.63391 -8.0172,11.60335 -0.95581,1.0983 -2.95283,3.37942 -4.43783,5.06916 -3.3494,3.81119 -9.76107,11.46991 -9.66852,11.54901 0.0377,0.0322 0.87852,-0.0624 1.86852,-0.21017 2.57705,-0.38474 9.97311,-0.36536 13.65529,0.0358 3.95063,0.43038 13.15947,2.11851 17.69471,3.24373 1.8975,0.47078 3.49877,0.81916 3.55836,0.77419 0.0596,-0.045 0.16241,-0.77365 0.22846,-1.61927 z"
     id="path3426"
     inkscape:connector-curvature="0"
     sodipodi:nodetypes="ssccssccccsssssssccsccssssssssssssccssssssscssssssssscccsssssssssccssssssscsacccssscscssssssccssscssssssssssssssssscssscccscscccssssscssssscccssccsssccssccc" />
</svg>
